<svg width="120" height="26" viewBox="0 0 120 26" fill="none" xmlns="http://www.w3.org/2000/svg">
<path d="M6.97266 25C6.48047 25 5.98372 24.9681 5.48242 24.9043C4.99023 24.8405 4.51628 24.7402 4.06055 24.6035C3.61393 24.4577 3.19466 24.2708 2.80273 24.043C2.41081 23.8151 2.06901 23.5326 1.77734 23.1953C1.49479 22.8581 1.27148 22.4616 1.10742 22.0059C0.943359 21.5501 0.861328 21.026 0.861328 20.4336C0.861328 19.6406 1.01172 18.9616 1.3125 18.3965C1.61328 17.8314 2.01432 17.362 2.51562 16.9883C3.02604 16.6146 3.60938 16.3275 4.26562 16.127C4.92188 15.9264 5.60091 15.7988 6.30273 15.7441V14.8008C6.30273 14.4453 6.25716 14.1628 6.16602 13.9531C6.07487 13.7435 5.95638 13.5885 5.81055 13.4883C5.67383 13.3789 5.51888 13.3105 5.3457 13.2832C5.18164 13.2467 5.02214 13.2285 4.86719 13.2285C4.6849 13.2285 4.48893 13.2559 4.2793 13.3105C4.07878 13.3652 3.88281 13.4336 3.69141 13.5156C3.5 13.5885 3.31771 13.6706 3.14453 13.7617C2.97135 13.8529 2.82552 13.9349 2.70703 14.0078C2.65234 14.0443 2.60221 14.0762 2.55664 14.1035C2.51107 14.1309 2.46549 14.1445 2.41992 14.1445C2.33789 14.1445 2.26042 14.0853 2.1875 13.9668L1.72266 13.2285C1.67708 13.1647 1.6543 13.0964 1.6543 13.0234C1.6543 12.9505 1.68164 12.8867 1.73633 12.832C1.80013 12.7773 1.85938 12.7318 1.91406 12.6953C2.21484 12.4857 2.59766 12.2715 3.0625 12.0527C3.52734 11.834 4.04688 11.638 4.62109 11.4648C5.20443 11.2917 5.83333 11.1504 6.50781 11.041C7.18229 10.9316 7.87956 10.877 8.59961 10.877C9.2832 10.877 9.94857 10.8997 10.5957 10.9453C11.252 10.9909 11.8672 11.0911 12.4414 11.2461C13.0247 11.3919 13.5534 11.6061 14.0273 11.8887C14.5104 12.1621 14.9251 12.5267 15.2715 12.9824C15.627 13.4382 15.9004 13.9987 16.0918 14.6641C16.2832 15.3294 16.3789 16.127 16.3789 17.0566V23.1543C16.3789 23.4551 16.3516 23.724 16.2969 23.9609C16.2422 24.1888 16.1374 24.3802 15.9824 24.5352C15.8275 24.6901 15.6133 24.8086 15.3398 24.8906C15.0664 24.9635 14.7109 25 14.2734 25H6.97266ZM6.30273 17.4805C5.64648 17.4805 5.09505 17.5625 4.64844 17.7266C4.20182 17.8906 3.8418 18.1094 3.56836 18.3828C3.29492 18.6562 3.09896 18.9753 2.98047 19.3398C2.86198 19.6953 2.80273 20.0645 2.80273 20.4473C2.80273 20.8301 2.86198 21.1947 2.98047 21.541C3.09896 21.8783 3.29492 22.1745 3.56836 22.4297C3.8418 22.6849 4.20182 22.8854 4.64844 23.0312C5.09505 23.1771 5.64648 23.25 6.30273 23.25V17.4805ZM14.1504 23.8516C14.3691 23.8516 14.5469 23.847 14.6836 23.8379C14.8203 23.8197 14.9297 23.7832 15.0117 23.7285C15.0938 23.6647 15.1484 23.5781 15.1758 23.4688C15.2031 23.3503 15.2168 23.1862 15.2168 22.9766V16.7559C15.2168 16.0176 15.1393 15.3978 14.9844 14.8965C14.8294 14.3861 14.6335 13.9714 14.3965 13.6523C14.1686 13.3242 13.918 13.0781 13.6445 12.9141C13.3711 12.7409 13.1159 12.6133 12.8789 12.5312C12.9883 12.6497 13.1159 12.8184 13.2617 13.0371C13.4167 13.2559 13.5579 13.5339 13.6855 13.8711C13.8132 14.2083 13.9225 14.6139 14.0137 15.0879C14.1048 15.5527 14.1504 16.0905 14.1504 16.7012V23.8516ZM26.5371 25.2734C25.3431 25.2734 24.2721 25.1139 23.3242 24.7949C22.3763 24.4759 21.5742 24.0156 20.918 23.4141C20.2617 22.8034 19.7604 22.0514 19.4141 21.1582C19.0677 20.265 18.8945 19.2441 18.8945 18.0957V4.47852C18.8945 4.16862 18.9219 3.89518 18.9766 3.6582C19.0312 3.41211 19.1361 3.21159 19.291 3.05664C19.446 2.90169 19.6602 2.7832 19.9336 2.70117C20.207 2.61914 20.5625 2.57812 21 2.57812H26.9883C27.3802 2.57812 27.7038 2.61914 27.959 2.70117C28.2142 2.7832 28.4147 2.90625 28.5605 3.07031C28.7155 3.22526 28.8203 3.42578 28.875 3.67188C28.9388 3.90885 28.9707 4.19141 28.9707 4.51953V11C29.7728 11.1458 30.5339 11.3828 31.2539 11.7109C31.9831 12.0299 32.6211 12.472 33.168 13.0371C33.7148 13.5931 34.1478 14.2812 34.4668 15.1016C34.7858 15.9219 34.9453 16.9062 34.9453 18.0547C34.9453 19.0117 34.8314 19.8548 34.6035 20.584C34.3848 21.304 34.0749 21.9329 33.6738 22.4707C33.2819 23.0085 32.8171 23.4551 32.2793 23.8105C31.7507 24.166 31.1719 24.4531 30.543 24.6719C29.9232 24.8906 29.2715 25.0456 28.5879 25.1367C27.9043 25.2279 27.2207 25.2734 26.5371 25.2734ZM28.9707 23.332C29.6816 23.2409 30.2923 23.0495 30.8027 22.7578C31.3132 22.457 31.7279 22.0742 32.0469 21.6094C32.375 21.1445 32.6165 20.6113 32.7715 20.0098C32.9264 19.4082 33.0039 18.7565 33.0039 18.0547C33.0039 17.362 32.9264 16.7103 32.7715 16.0996C32.6165 15.4889 32.375 14.9512 32.0469 14.4863C31.7188 14.0215 31.2995 13.6387 30.7891 13.3379C30.2878 13.0371 29.6816 12.8411 28.9707 12.75V23.332ZM27.8086 4.62891C27.8086 4.42839 27.7949 4.26888 27.7676 4.15039C27.7402 4.0319 27.6855 3.94531 27.6035 3.89062C27.5215 3.82682 27.4121 3.79036 27.2754 3.78125C27.1387 3.76302 26.9609 3.75391 26.7422 3.75391V23.6055C26.7878 23.6055 26.8561 23.6055 26.9473 23.6055C27.0384 23.5964 27.1341 23.5918 27.2344 23.5918C27.3438 23.5827 27.4486 23.5736 27.5488 23.5645C27.6491 23.5553 27.7357 23.5417 27.8086 23.5234V4.62891ZM54.7832 17.6855L56.7383 11.7793C56.7747 11.6699 56.8112 11.5697 56.8477 11.4785C56.8841 11.3783 56.9342 11.2962 56.998 11.2324C57.0618 11.1595 57.1484 11.1048 57.2578 11.0684C57.3672 11.0228 57.513 11 57.6953 11H59.1719C59.3542 11 59.4818 11.0319 59.5547 11.0957C59.6276 11.1595 59.6641 11.2415 59.6641 11.3418C59.6641 11.4421 59.6322 11.5697 59.5684 11.7246L54.5781 23.7148C54.4049 24.1341 54.2181 24.4531 54.0176 24.6719C53.8171 24.8906 53.5482 25 53.2109 25H51.0234C50.8229 25 50.6452 24.959 50.4902 24.877C50.3444 24.7949 50.2168 24.6901 50.1074 24.5625C49.998 24.4349 49.9069 24.2982 49.834 24.1523C49.7611 24.0065 49.7018 23.8698 49.6562 23.7422L47.6738 18.4375L45.4863 23.7148C45.3132 24.1341 45.1263 24.4531 44.9258 24.6719C44.7253 24.8906 44.4518 25 44.1055 25H41.9316C41.722 25 41.5443 24.959 41.3984 24.877C41.2526 24.7949 41.125 24.6901 41.0156 24.5625C40.9062 24.4349 40.8151 24.2982 40.7422 24.1523C40.6693 24.0065 40.6055 23.8698 40.5508 23.7422L35.9297 12.1211C35.8568 11.9479 35.8203 11.7884 35.8203 11.6426C35.8203 11.4056 35.8978 11.2415 36.0527 11.1504C36.2077 11.0501 36.3717 11 36.5449 11H41.959C42.1868 11 42.3783 11.0137 42.5332 11.041C42.6973 11.0684 42.834 11.1139 42.9434 11.1777C43.0618 11.2415 43.1576 11.3281 43.2305 11.4375C43.3034 11.5378 43.3717 11.6699 43.4355 11.834L45.6777 17.6855L46.4844 15.2383L45.3223 12.1211C45.2493 11.9206 45.2129 11.7565 45.2129 11.6289C45.2129 11.3919 45.2858 11.2279 45.4316 11.1367C45.5866 11.0456 45.7552 11 45.9375 11H51.3379C51.7936 11 52.1263 11.0592 52.3359 11.1777C52.5456 11.2871 52.7051 11.5059 52.8145 11.834L54.7832 17.6855ZM42.4922 12.5723C42.3737 12.2897 42.1732 12.1484 41.8906 12.1484H41.2344L44.5566 20.8438L45.0762 19.3125L42.4922 12.5723ZM51.8984 12.5723C51.7799 12.2897 51.5794 12.1484 51.2969 12.1484H50.75L53.7031 20.9531L54.209 19.4355L51.8984 12.5723ZM66.7734 25C66.2812 25 65.7845 24.9681 65.2832 24.9043C64.791 24.8405 64.3171 24.7402 63.8613 24.6035C63.4147 24.4577 62.9954 24.2708 62.6035 24.043C62.2116 23.8151 61.8698 23.5326 61.5781 23.1953C61.2956 22.8581 61.0723 22.4616 60.9082 22.0059C60.7441 21.5501 60.6621 21.026 60.6621 20.4336C60.6621 19.6406 60.8125 18.9616 61.1133 18.3965C61.4141 17.8314 61.8151 17.362 62.3164 16.9883C62.8268 16.6146 63.4102 16.3275 64.0664 16.127C64.7227 15.9264 65.4017 15.7988 66.1035 15.7441V14.8008C66.1035 14.4453 66.0579 14.1628 65.9668 13.9531C65.8757 13.7435 65.7572 13.5885 65.6113 13.4883C65.4746 13.3789 65.3197 13.3105 65.1465 13.2832C64.9824 13.2467 64.8229 13.2285 64.668 13.2285C64.4857 13.2285 64.2897 13.2559 64.0801 13.3105C63.8796 13.3652 63.6836 13.4336 63.4922 13.5156C63.3008 13.5885 63.1185 13.6706 62.9453 13.7617C62.7721 13.8529 62.6263 13.9349 62.5078 14.0078C62.4531 14.0443 62.403 14.0762 62.3574 14.1035C62.3118 14.1309 62.2663 14.1445 62.2207 14.1445C62.1387 14.1445 62.0612 14.0853 61.9883 13.9668L61.5234 13.2285C61.4779 13.1647 61.4551 13.0964 61.4551 13.0234C61.4551 12.9505 61.4824 12.8867 61.5371 12.832C61.6009 12.7773 61.6602 12.7318 61.7148 12.6953C62.0156 12.4857 62.3984 12.2715 62.8633 12.0527C63.3281 11.834 63.8477 11.638 64.4219 11.4648C65.0052 11.2917 65.6341 11.1504 66.3086 11.041C66.9831 10.9316 67.6803 10.877 68.4004 10.877C69.084 10.877 69.7493 10.8997 70.3965 10.9453C71.0527 10.9909 71.668 11.0911 72.2422 11.2461C72.8255 11.3919 73.3542 11.6061 73.8281 11.8887C74.3112 12.1621 74.7259 12.5267 75.0723 12.9824C75.4277 13.4382 75.7012 13.9987 75.8926 14.6641C76.084 15.3294 76.1797 16.127 76.1797 17.0566V23.1543C76.1797 23.4551 76.1523 23.724 76.0977 23.9609C76.043 24.1888 75.9382 24.3802 75.7832 24.5352C75.6283 24.6901 75.4141 24.8086 75.1406 24.8906C74.8672 24.9635 74.5117 25 74.0742 25H66.7734ZM66.1035 17.4805C65.4473 17.4805 64.8958 17.5625 64.4492 17.7266C64.0026 17.8906 63.6426 18.1094 63.3691 18.3828C63.0957 18.6562 62.8997 18.9753 62.7812 19.3398C62.6628 19.6953 62.6035 20.0645 62.6035 20.4473C62.6035 20.8301 62.6628 21.1947 62.7812 21.541C62.8997 21.8783 63.0957 22.1745 63.3691 22.4297C63.6426 22.6849 64.0026 22.8854 64.4492 23.0312C64.8958 23.1771 65.4473 23.25 66.1035 23.25V17.4805ZM73.9512 23.8516C74.1699 23.8516 74.3477 23.847 74.4844 23.8379C74.6211 23.8197 74.7305 23.7832 74.8125 23.7285C74.8945 23.6647 74.9492 23.5781 74.9766 23.4688C75.0039 23.3503 75.0176 23.1862 75.0176 22.9766V16.7559C75.0176 16.0176 74.9401 15.3978 74.7852 14.8965C74.6302 14.3861 74.4342 13.9714 74.1973 13.6523C73.9694 13.3242 73.7188 13.0781 73.4453 12.9141C73.1719 12.7409 72.9167 12.6133 72.6797 12.5312C72.7891 12.6497 72.9167 12.8184 73.0625 13.0371C73.2174 13.2559 73.3587 13.5339 73.4863 13.8711C73.6139 14.2083 73.7233 14.6139 73.8145 15.0879C73.9056 15.5527 73.9512 16.0905 73.9512 16.7012V23.8516ZM78.6953 4.50586C78.6953 4.19596 78.7227 3.92253 78.7773 3.68555C78.832 3.43945 78.9368 3.23893 79.0918 3.08398C79.2467 2.92904 79.4609 2.81055 79.7344 2.72852C80.0078 2.64648 80.3633 2.60547 80.8008 2.60547H86.7891C87.2083 2.60547 87.5456 2.64648 87.8008 2.72852C88.056 2.80143 88.2565 2.91536 88.4023 3.07031C88.5482 3.22526 88.6439 3.42122 88.6895 3.6582C88.7441 3.89518 88.7715 4.17318 88.7715 4.49219V23.127C88.7715 23.4368 88.7441 23.7103 88.6895 23.9473C88.6348 24.1751 88.5345 24.3711 88.3887 24.5352C88.2428 24.6901 88.0378 24.8086 87.7734 24.8906C87.5182 24.9635 87.181 25 86.7617 25H80.8008C80.3633 25 80.0078 24.959 79.7344 24.877C79.4609 24.7949 79.2467 24.6764 79.0918 24.5215C78.9368 24.3665 78.832 24.1706 78.7773 23.9336C78.7227 23.6966 78.6953 23.4186 78.6953 23.0996V4.50586ZM87.6094 4.62891C87.6094 4.42839 87.5957 4.26888 87.5684 4.15039C87.541 4.0319 87.4863 3.94531 87.4043 3.89062C87.3223 3.82682 87.2129 3.79036 87.0762 3.78125C86.9395 3.76302 86.7617 3.75391 86.543 3.75391V23.8516C86.7617 23.8516 86.9395 23.847 87.0762 23.8379C87.2129 23.8197 87.3223 23.7832 87.4043 23.7285C87.4863 23.6647 87.541 23.5781 87.5684 23.4688C87.5957 23.3503 87.6094 23.1862 87.6094 22.9766V4.62891ZM91.3008 12.9004C91.3008 12.5905 91.3281 12.3171 91.3828 12.0801C91.4375 11.834 91.5423 11.6335 91.6973 11.4785C91.8522 11.3236 92.0664 11.2051 92.3398 11.123C92.6133 11.041 92.9688 11 93.4062 11H99.3945C99.8138 11 100.151 11.041 100.406 11.123C100.671 11.196 100.876 11.3099 101.021 11.4648C101.167 11.6198 101.263 11.8158 101.309 12.0527C101.354 12.2897 101.377 12.5723 101.377 12.9004V23.127C101.377 23.4368 101.354 23.7103 101.309 23.9473C101.263 24.1751 101.167 24.3711 101.021 24.5352C100.876 24.6901 100.671 24.8086 100.406 24.8906C100.151 24.9635 99.8138 25 99.3945 25H93.4062C92.9688 25 92.6133 24.959 92.3398 24.877C92.0664 24.7949 91.8522 24.6764 91.6973 24.5215C91.5423 24.3665 91.4375 24.1706 91.3828 23.9336C91.3281 23.6966 91.3008 23.4186 91.3008 23.0996V12.9004ZM91.8066 5.14844C91.8066 4.51953 91.9251 3.92708 92.1621 3.37109C92.4082 2.8151 92.7363 2.33203 93.1465 1.92188C93.5566 1.51172 94.0397 1.18815 94.5957 0.951172C95.1517 0.705078 95.7441 0.582031 96.373 0.582031C96.9928 0.582031 97.5762 0.705078 98.123 0.951172C98.679 1.18815 99.1621 1.51172 99.5723 1.92188C99.9824 2.33203 100.306 2.8151 100.543 3.37109C100.789 3.92708 100.912 4.51953 100.912 5.14844C100.912 5.76823 100.789 6.35612 100.543 6.91211C100.306 7.45898 99.9824 7.9375 99.5723 8.34766C99.1621 8.75781 98.679 9.08594 98.123 9.33203C97.5762 9.56901 96.9928 9.6875 96.373 9.6875C95.7441 9.6875 95.1517 9.56901 94.5957 9.33203C94.0397 9.08594 93.5566 8.75781 93.1465 8.34766C92.7363 7.9375 92.4082 7.45898 92.1621 6.91211C91.9251 6.35612 91.8066 5.76823 91.8066 5.14844ZM100.215 13.0234C100.215 12.8229 100.201 12.6634 100.174 12.5449C100.146 12.4264 100.092 12.3398 100.01 12.2852C99.9277 12.2214 99.8184 12.1849 99.6816 12.1758C99.5449 12.1576 99.3672 12.1484 99.1484 12.1484V23.8516C99.3672 23.8516 99.5449 23.847 99.6816 23.8379C99.8184 23.8197 99.9277 23.7832 100.01 23.7285C100.092 23.6647 100.146 23.5781 100.174 23.4688C100.201 23.3503 100.215 23.1862 100.215 22.9766V13.0234ZM98.6289 5.14844C98.6289 5.78646 98.5013 6.38802 98.2461 6.95312C98 7.51823 97.6628 8.01042 97.2344 8.42969C97.599 8.33854 97.9316 8.18815 98.2324 7.97852C98.5423 7.76888 98.8066 7.52279 99.0254 7.24023C99.2533 6.94857 99.431 6.625 99.5586 6.26953C99.6862 5.91406 99.75 5.54036 99.75 5.14844C99.75 4.75651 99.6862 4.38281 99.5586 4.02734C99.431 3.67188 99.2533 3.35286 99.0254 3.07031C98.8066 2.77865 98.5423 2.53255 98.2324 2.33203C97.9316 2.1224 97.599 1.96745 97.2344 1.86719C97.6628 2.28646 98 2.77865 98.2461 3.34375C98.5013 3.90885 98.6289 4.51042 98.6289 5.14844ZM119.424 23.0996C119.424 23.4186 119.396 23.6966 119.342 23.9336C119.287 24.1706 119.182 24.3665 119.027 24.5215C118.872 24.6764 118.658 24.7949 118.385 24.877C118.111 24.959 117.756 25 117.318 25H111.344C110.678 24.9818 110.018 24.9225 109.361 24.8223C108.714 24.7129 108.094 24.5488 107.502 24.3301C106.919 24.1022 106.372 23.8105 105.861 23.4551C105.36 23.0905 104.923 22.653 104.549 22.1426C104.184 21.623 103.897 21.0169 103.688 20.3242C103.478 19.6224 103.373 18.8203 103.373 17.918C103.373 16.7969 103.533 15.8353 103.852 15.0332C104.171 14.222 104.604 13.543 105.15 12.9961C105.697 12.4492 106.331 12.0163 107.051 11.6973C107.78 11.3783 108.546 11.1458 109.348 11V4.51953C109.348 4.20052 109.37 3.92253 109.416 3.68555C109.462 3.43945 109.557 3.23893 109.703 3.08398C109.849 2.91992 110.049 2.80143 110.305 2.72852C110.56 2.64648 110.902 2.60547 111.33 2.60547H117.318C117.756 2.60547 118.111 2.64648 118.385 2.72852C118.658 2.81055 118.872 2.92904 119.027 3.08398C119.182 3.23893 119.287 3.43945 119.342 3.68555C119.396 3.92253 119.424 4.19596 119.424 4.50586V23.0996ZM105.314 17.9316C105.314 18.6061 105.392 19.2396 105.547 19.832C105.702 20.4154 105.939 20.9349 106.258 21.3906C106.586 21.8372 107.005 22.2064 107.516 22.498C108.026 22.7897 108.637 22.9766 109.348 23.0586V12.75C108.637 12.832 108.026 13.0234 107.516 13.3242C107.005 13.6159 106.586 13.9896 106.258 14.4453C105.939 14.901 105.702 15.4251 105.547 16.0176C105.392 16.61 105.314 17.248 105.314 17.9316ZM118.262 4.62891C118.262 4.42839 118.248 4.26888 118.221 4.15039C118.193 4.0319 118.139 3.94531 118.057 3.89062C117.975 3.82682 117.865 3.79036 117.729 3.78125C117.592 3.76302 117.414 3.75391 117.195 3.75391V23.8516C117.414 23.8516 117.592 23.847 117.729 23.8379C117.865 23.8197 117.975 23.7832 118.057 23.7285C118.139 23.6647 118.193 23.5781 118.221 23.4688C118.248 23.3503 118.262 23.1862 118.262 22.9766V4.62891Z" fill="#17171A"/>
</svg>
