<svg width="30" height="30" viewBox="0 0 30 30" fill="none" xmlns="http://www.w3.org/2000/svg">
<g clip-path="url(#clip0_110_33)">
<path d="M29.4888 5.36622C29.3561 4.12418 28.8019 2.96506 27.9187 2.08181C27.0354 1.19855 25.8763 0.644427 24.6343 0.511672C18.232 -0.171371 11.7752 -0.171371 5.37291 0.511672C4.12965 0.642963 2.96895 1.19644 2.08432 2.07983C1.19969 2.96322 0.644585 4.12314 0.51155 5.36622C-0.171493 11.7685 -0.171493 18.2253 0.51155 24.6276C0.642536 25.871 1.19591 27.0318 2.07936 27.9165C2.96281 28.8012 4.1229 29.3562 5.3661 29.4889C11.7684 30.172 18.2252 30.172 24.6275 29.4889C25.8708 29.358 27.0317 28.8046 27.9164 27.9211C28.8011 27.0377 29.3561 25.8776 29.4888 24.6344C30.1724 18.2299 30.1724 11.7708 29.4888 5.36622V5.36622ZM19.7525 13.2259L19.4508 15.8372C19.4386 15.9566 19.3828 16.0673 19.2941 16.1481C19.2054 16.229 19.0901 16.2743 18.9701 16.2753H16.2428L16.2292 24.0225C16.2301 24.1143 16.1948 24.2028 16.131 24.2688C16.0673 24.3348 15.98 24.3731 15.8883 24.3753H13.1252C13.0792 24.3753 13.0338 24.3661 12.9915 24.3481C12.9492 24.3301 12.911 24.3038 12.8792 24.2707C12.8473 24.2376 12.8225 24.1984 12.8062 24.1554C12.7899 24.1125 12.7824 24.0667 12.7843 24.0208V16.2753H10.7388C10.6746 16.2746 10.6111 16.2613 10.552 16.2361C10.4929 16.2109 10.4393 16.1743 10.3944 16.1284C10.3494 16.0825 10.314 16.0282 10.29 15.9686C10.266 15.909 10.2541 15.8452 10.2547 15.781L10.2445 13.1679C10.2436 13.1035 10.2554 13.0394 10.2793 12.9795C10.3031 12.9196 10.3385 12.865 10.3835 12.8188C10.4284 12.7726 10.482 12.7357 10.5412 12.7102C10.6005 12.6847 10.6641 12.6711 10.7286 12.6702H12.7843V10.1475C12.7843 7.21906 14.5229 5.62531 17.0729 5.62531H19.1627C19.2273 5.62598 19.2911 5.63939 19.3506 5.66479C19.41 5.69018 19.4638 5.72706 19.5089 5.7733C19.5541 5.81955 19.5896 5.87424 19.6136 5.93426C19.6375 5.99427 19.6494 6.05843 19.6485 6.12304V8.3236C19.6494 8.38822 19.6375 8.45237 19.6136 8.51238C19.5896 8.5724 19.5541 8.6271 19.5089 8.67334C19.4638 8.71958 19.41 8.75646 19.3506 8.78185C19.2911 8.80725 19.2273 8.82067 19.1627 8.82133H17.8809C16.4951 8.82133 16.2258 9.50315 16.2258 10.4867V12.6702H19.2718C19.3411 12.6713 19.4095 12.687 19.4723 12.7164C19.5352 12.7457 19.5911 12.788 19.6365 12.8405C19.6818 12.8929 19.7156 12.9544 19.7356 13.0208C19.7556 13.0872 19.7613 13.1571 19.7525 13.2259V13.2259Z" fill="white"/>
</g>
<defs>
<clipPath id="clip0_110_33">
<rect width="30" height="30" fill="white"/>
</clipPath>
</defs>
</svg>
