<svg width="30" height="30" viewBox="0 0 30 30" fill="none" xmlns="http://www.w3.org/2000/svg">
<g clip-path="url(#clip0_110_44)">
<path d="M18.7894 7.51224H11.211C10.7253 7.51202 10.2444 7.60748 9.79562 7.79318C9.34686 7.97888 8.93909 8.25118 8.59559 8.59451C8.2521 8.93785 7.97962 9.34549 7.79371 9.79417C7.6078 10.2428 7.51212 10.7237 7.51212 11.2094V18.7878C7.51189 19.2736 7.60742 19.7547 7.79322 20.2036C7.97903 20.6524 8.25147 21.0603 8.59499 21.4038C8.93851 21.7473 9.34636 22.0198 9.79522 22.2056C10.2441 22.3914 10.7252 22.4869 11.211 22.4867H18.7894C19.2752 22.4869 19.7563 22.3914 20.2051 22.2056C20.654 22.0198 21.0619 21.7473 21.4054 21.4038C21.7489 21.0603 22.0213 20.6524 22.2072 20.2036C22.393 19.7547 22.4885 19.2736 22.4883 18.7878V11.2094C22.4883 10.7237 22.3926 10.2428 22.2067 9.79417C22.0208 9.34549 21.7483 8.93785 21.4048 8.59451C21.0613 8.25118 20.6535 7.97888 20.2048 7.79318C19.756 7.60748 19.2751 7.51202 18.7894 7.51224V7.51224ZM15.0002 19.8497C14.0411 19.8497 13.1035 19.5653 12.306 19.0325C11.5085 18.4996 10.8869 17.7422 10.5199 16.8561C10.1529 15.97 10.0568 14.9949 10.2439 14.0542C10.4311 13.1135 10.8929 12.2494 11.5711 11.5712C12.2493 10.893 13.1134 10.4312 14.0541 10.2441C14.9948 10.0569 15.9699 10.153 16.856 10.52C17.7421 10.8871 18.4995 11.5086 19.0323 12.3061C19.5652 13.1036 19.8496 14.0412 19.8496 15.0003C19.8478 16.2859 19.3363 17.5183 18.4273 18.4274C17.5182 19.3364 16.2858 19.8479 15.0002 19.8497V19.8497ZM19.8769 11.3475C19.6409 11.3475 19.4102 11.2775 19.214 11.1464C19.0178 11.0153 18.8648 10.8289 18.7745 10.6109C18.6842 10.3929 18.6606 10.153 18.7066 9.92151C18.7527 9.69005 18.8663 9.47745 19.0332 9.31058C19.2001 9.14371 19.4127 9.03007 19.6441 8.98403C19.8756 8.93799 20.1155 8.96162 20.3335 9.05193C20.5515 9.14224 20.7379 9.29517 20.869 9.49139C21.0001 9.68761 21.0701 9.9183 21.0701 10.1543C21.0701 10.4707 20.9444 10.7742 20.7206 10.998C20.4968 11.2218 20.1933 11.3475 19.8769 11.3475V11.3475ZM15.0002 12.0361C14.4139 12.0361 13.8408 12.21 13.3534 12.5357C12.8659 12.8614 12.486 13.3243 12.2616 13.866C12.0373 14.4076 11.9786 15.0036 12.0929 15.5786C12.2073 16.1536 12.4896 16.6818 12.9042 17.0963C13.3187 17.5109 13.8469 17.7932 14.4219 17.9076C14.9969 18.0219 15.5929 17.9632 16.1345 17.7389C16.6762 17.5145 17.1391 17.1346 17.4648 16.6471C17.7905 16.1597 17.9644 15.5866 17.9644 15.0003C17.9644 14.2142 17.6521 13.4602 17.0962 12.9043C16.5403 12.3484 15.7863 12.0361 15.0002 12.0361V12.0361ZM18.7894 7.51224H11.211C10.7253 7.51202 10.2444 7.60748 9.79562 7.79318C9.34686 7.97888 8.93909 8.25118 8.59559 8.59451C8.2521 8.93785 7.97962 9.34549 7.79371 9.79417C7.6078 10.2428 7.51212 10.7237 7.51212 11.2094V18.7878C7.51189 19.2736 7.60742 19.7547 7.79322 20.2036C7.97903 20.6524 8.25147 21.0603 8.59499 21.4038C8.93851 21.7473 9.34636 22.0198 9.79522 22.2056C10.2441 22.3914 10.7252 22.4869 11.211 22.4867H18.7894C19.2752 22.4869 19.7563 22.3914 20.2051 22.2056C20.654 22.0198 21.0619 21.7473 21.4054 21.4038C21.7489 21.0603 22.0213 20.6524 22.2072 20.2036C22.393 19.7547 22.4885 19.2736 22.4883 18.7878V11.2094C22.4883 10.7237 22.3926 10.2428 22.2067 9.79417C22.0208 9.34549 21.7483 8.93785 21.4048 8.59451C21.0613 8.25118 20.6535 7.97888 20.2048 7.79318C19.756 7.60748 19.2751 7.51202 18.7894 7.51224V7.51224ZM15.0002 19.8497C14.0411 19.8497 13.1035 19.5653 12.306 19.0325C11.5085 18.4996 10.8869 17.7422 10.5199 16.8561C10.1529 15.97 10.0568 14.9949 10.2439 14.0542C10.4311 13.1135 10.8929 12.2494 11.5711 11.5712C12.2493 10.893 13.1134 10.4312 14.0541 10.2441C14.9948 10.0569 15.9699 10.153 16.856 10.52C17.7421 10.8871 18.4995 11.5086 19.0323 12.3061C19.5652 13.1036 19.8496 14.0412 19.8496 15.0003C19.8478 16.2859 19.3363 17.5183 18.4273 18.4274C17.5182 19.3364 16.2858 19.8479 15.0002 19.8497V19.8497ZM19.8769 11.3475C19.6409 11.3475 19.4102 11.2775 19.214 11.1464C19.0178 11.0153 18.8648 10.8289 18.7745 10.6109C18.6842 10.3929 18.6606 10.153 18.7066 9.92151C18.7527 9.69005 18.8663 9.47745 19.0332 9.31058C19.2001 9.14371 19.4127 9.03007 19.6441 8.98403C19.8756 8.93799 20.1155 8.96162 20.3335 9.05193C20.5515 9.14224 20.7379 9.29517 20.869 9.49139C21.0001 9.68761 21.0701 9.9183 21.0701 10.1543C21.0701 10.4707 20.9444 10.7742 20.7206 10.998C20.4968 11.2218 20.1933 11.3475 19.8769 11.3475V11.3475ZM15.0002 12.0361C14.4139 12.0361 13.8408 12.21 13.3534 12.5357C12.8659 12.8614 12.486 13.3243 12.2616 13.866C12.0373 14.4076 11.9786 15.0036 12.0929 15.5786C12.2073 16.1536 12.4896 16.6818 12.9042 17.0963C13.3187 17.5109 13.8469 17.7932 14.4219 17.9076C14.9969 18.0219 15.5929 17.9632 16.1345 17.7389C16.6762 17.5145 17.1391 17.1346 17.4648 16.6471C17.7905 16.1597 17.9644 15.5866 17.9644 15.0003C17.9644 14.2142 17.6521 13.4602 17.0962 12.9043C16.5403 12.3484 15.7863 12.0361 15.0002 12.0361V12.0361ZM29.4888 5.36451C29.356 4.12266 28.8018 2.96378 27.9185 2.0808C27.0353 1.19783 25.8762 0.644053 24.6343 0.511672C18.232 -0.171371 11.7752 -0.171371 5.37291 0.511672C4.12979 0.642588 2.96913 1.19572 2.08447 2.07882C1.19981 2.96193 0.644647 4.12162 0.51155 5.36451C-0.171493 11.7668 -0.171493 18.2236 0.51155 24.6259C0.642169 25.8696 1.19538 27.0308 2.07887 27.9159C2.96235 28.8009 4.12264 29.3561 5.3661 29.4889C11.7682 30.1753 18.2253 30.1753 24.6275 29.4889C25.8711 29.3579 27.0322 28.8043 27.9169 27.9205C28.8016 27.0367 29.3565 25.8762 29.4888 24.6327C30.1724 18.2282 30.1724 11.7691 29.4888 5.36451V5.36451ZM24.3752 18.7878C24.3743 20.2691 23.7855 21.6896 22.7383 22.7372C21.691 23.7848 20.2707 24.374 18.7894 24.3753H11.211C9.7298 24.3735 8.30982 23.7842 7.26262 22.7367C6.21542 21.6892 5.62654 20.269 5.62519 18.7878V11.2094C5.62699 9.72867 6.21613 8.30912 7.26332 7.26224C8.31052 6.21536 9.73025 5.62666 11.211 5.62531H18.7894C20.2701 5.62666 21.6898 6.21536 22.737 7.26224C23.7842 8.30912 24.3734 9.72867 24.3752 11.2094V18.7878ZM18.7894 7.51224H11.211C10.7253 7.51202 10.2444 7.60748 9.79562 7.79318C9.34686 7.97888 8.93909 8.25118 8.59559 8.59451C8.2521 8.93785 7.97962 9.34549 7.79371 9.79417C7.6078 10.2428 7.51212 10.7237 7.51212 11.2094V18.7878C7.51189 19.2736 7.60742 19.7547 7.79322 20.2036C7.97903 20.6524 8.25147 21.0603 8.59499 21.4038C8.93851 21.7473 9.34636 22.0198 9.79522 22.2056C10.2441 22.3914 10.7252 22.4869 11.211 22.4867H18.7894C19.2752 22.4869 19.7563 22.3914 20.2051 22.2056C20.654 22.0198 21.0619 21.7473 21.4054 21.4038C21.7489 21.0603 22.0213 20.6524 22.2072 20.2036C22.393 19.7547 22.4885 19.2736 22.4883 18.7878V11.2094C22.4883 10.7237 22.3926 10.2428 22.2067 9.79417C22.0208 9.34549 21.7483 8.93785 21.4048 8.59451C21.0613 8.25118 20.6535 7.97888 20.2048 7.79318C19.756 7.60748 19.2751 7.51202 18.7894 7.51224V7.51224ZM15.0002 19.8497C14.0411 19.8497 13.1035 19.5653 12.306 19.0325C11.5085 18.4996 10.8869 17.7422 10.5199 16.8561C10.1529 15.97 10.0568 14.9949 10.2439 14.0542C10.4311 13.1135 10.8929 12.2494 11.5711 11.5712C12.2493 10.893 13.1134 10.4312 14.0541 10.2441C14.9948 10.0569 15.9699 10.153 16.856 10.52C17.7421 10.8871 18.4995 11.5086 19.0323 12.3061C19.5652 13.1036 19.8496 14.0412 19.8496 15.0003C19.8478 16.2859 19.3363 17.5183 18.4273 18.4274C17.5182 19.3364 16.2858 19.8479 15.0002 19.8497V19.8497ZM19.8769 11.3475C19.6409 11.3475 19.4102 11.2775 19.214 11.1464C19.0178 11.0153 18.8648 10.8289 18.7745 10.6109C18.6842 10.3929 18.6606 10.153 18.7066 9.92151C18.7527 9.69005 18.8663 9.47745 19.0332 9.31058C19.2001 9.14371 19.4127 9.03007 19.6441 8.98403C19.8756 8.93799 20.1155 8.96162 20.3335 9.05193C20.5515 9.14224 20.7379 9.29517 20.869 9.49139C21.0001 9.68761 21.0701 9.9183 21.0701 10.1543C21.0701 10.4707 20.9444 10.7742 20.7206 10.998C20.4968 11.2218 20.1933 11.3475 19.8769 11.3475V11.3475ZM15.0002 12.0361C14.4139 12.0361 13.8408 12.21 13.3534 12.5357C12.8659 12.8614 12.486 13.3243 12.2616 13.866C12.0373 14.4076 11.9786 15.0036 12.0929 15.5786C12.2073 16.1536 12.4896 16.6818 12.9042 17.0963C13.3187 17.5109 13.8469 17.7932 14.4219 17.9076C14.9969 18.0219 15.5929 17.9632 16.1345 17.7389C16.6762 17.5145 17.1391 17.1346 17.4648 16.6471C17.7905 16.1597 17.9644 15.5866 17.9644 15.0003C17.9644 14.2142 17.6521 13.4602 17.0962 12.9043C16.5403 12.3484 15.7863 12.0361 15.0002 12.0361V12.0361Z" fill="white"/>
</g>
<defs>
<clipPath id="clip0_110_44">
<rect width="30" height="30" fill="white"/>
</clipPath>
</defs>
</svg>
