<svg width="30" height="30" viewBox="0 0 30 30" fill="none" xmlns="http://www.w3.org/2000/svg">
<g clip-path="url(#clip0_110_49)">
<path d="M20.187 9.81478L20.1495 9.77558C18.9239 8.54447 17.2986 7.79205 15.5669 7.65415C13.8352 7.51626 12.1113 8.00196 10.7064 9.02359C9.30139 10.0452 8.30793 11.5355 7.90532 13.2253C7.5027 14.9151 7.71746 16.6933 8.51083 18.2386L8.83128 18.8693L8.23469 21.7671L8.22617 21.8063L11.1051 21.1244L11.7614 21.4466C13.1269 22.1249 14.6706 22.3582 16.1755 22.1136C17.6804 21.869 19.0708 21.1588 20.1512 20.083C21.5151 18.7154 22.2818 16.8633 22.2836 14.9318C22.2905 13.0157 21.5364 11.1752 20.187 9.81478V9.81478ZM19.8938 17.9472C19.5409 18.5028 18.9836 19.183 18.283 19.3517C17.0557 19.65 15.1722 19.3619 12.8284 17.1784L12.7995 17.1494C10.7387 15.2403 10.2034 13.6517 10.333 12.3886C10.4046 11.671 11.0012 11.025 11.504 10.6023C11.5834 10.5344 11.6776 10.486 11.779 10.461C11.8804 10.4359 11.9863 10.435 12.0881 10.4582C12.19 10.4814 12.285 10.528 12.3656 10.5945C12.4462 10.661 12.5101 10.7453 12.5523 10.8409L13.3108 12.5557C13.3601 12.6662 13.3784 12.7881 13.3637 12.9082C13.349 13.0283 13.3018 13.1422 13.2273 13.2375L12.8438 13.7352C12.7633 13.8372 12.7147 13.9607 12.704 14.0901C12.6934 14.2196 12.7213 14.3494 12.7841 14.4631C12.9989 14.8381 13.5137 15.3921 14.0847 15.9085C14.7256 16.4864 15.4364 17.0165 15.8864 17.1989C16.0071 17.2469 16.1394 17.2582 16.2665 17.2312C16.3936 17.2042 16.5098 17.1402 16.6006 17.0472L17.0455 16.5989C17.1313 16.5142 17.2381 16.4539 17.3549 16.4239C17.4716 16.394 17.5943 16.3955 17.7103 16.4284L19.512 16.9398C19.6126 16.9685 19.7051 17.0203 19.7822 17.0911C19.8593 17.1619 19.9187 17.2497 19.9558 17.3476C19.9929 17.4455 20.0066 17.5506 19.9958 17.6547C19.9851 17.7588 19.9501 17.859 19.8938 17.9472V17.9472Z" fill="white"/>
<path d="M29.4886 5.36591C29.358 4.12306 28.8045 2.96276 27.9209 2.07909C27.0372 1.19542 25.8769 0.641988 24.634 0.511367C18.2319 -0.175033 11.7748 -0.175033 5.37267 0.511367C4.1286 0.640519 2.9667 1.1933 2.08166 2.0771C1.19662 2.9609 0.642204 4.12202 0.511306 5.36591C-0.171737 11.7682 -0.171737 18.225 0.511306 24.6273C0.640458 25.8714 1.19324 27.0332 2.07704 27.9183C2.96084 28.8033 4.12196 29.3577 5.36585 29.4886C11.768 30.175 18.2251 30.175 24.6272 29.4886C25.8713 29.3595 27.0332 28.8067 27.9182 27.9229C28.8033 27.0391 29.3577 25.878 29.4886 24.6341C30.1721 18.2296 30.1721 11.7705 29.4886 5.36591V5.36591ZM24.2948 15.2216C24.2445 16.7789 23.8039 18.2985 23.0133 19.6411C22.2227 20.9837 21.1075 22.1062 19.7701 22.9056C18.4327 23.7049 16.9159 24.1555 15.359 24.216C13.8021 24.2765 12.255 23.9449 10.8596 23.2517L6.16358 24.375C6.10432 24.3888 6.04254 24.3875 5.98392 24.3712C5.9253 24.3549 5.87172 24.3241 5.8281 24.2816C5.78449 24.2392 5.75223 24.1865 5.73431 24.1284C5.71638 24.0702 5.71336 24.0085 5.72551 23.9489L6.71244 19.1574C6.0687 17.8933 5.72265 16.4988 5.70077 15.0804C5.6789 13.662 5.98177 12.2575 6.58622 10.9742C7.19067 9.69085 8.08068 8.56283 9.18814 7.67639C10.2956 6.78995 11.5912 6.16861 12.9757 5.85989C14.3602 5.55117 15.797 5.56327 17.1762 5.89525C18.5553 6.22723 19.8402 6.8703 20.9326 7.77526C22.025 8.68021 22.8959 9.82307 23.4786 11.1164C24.0614 12.4097 24.3406 13.8191 24.2948 15.2369V15.2216Z" fill="white"/>
</g>
<defs>
<clipPath id="clip0_110_49">
<rect width="30" height="30" fill="white"/>
</clipPath>
</defs>
</svg>
