<svg width="30" height="30" viewBox="0 0 30 30" fill="none" xmlns="http://www.w3.org/2000/svg">
<g clip-path="url(#clip0_110_38)">
<path d="M12.7566 11.4051L18.6066 15L12.7566 18.5915V11.4051Z" fill="white"/>
<path d="M29.4888 5.36451C29.356 4.12266 28.8018 2.96378 27.9185 2.0808C27.0353 1.19783 25.8762 0.644053 24.6343 0.511672C18.232 -0.171371 11.7752 -0.171371 5.37291 0.511672C4.12979 0.642588 2.96913 1.19572 2.08447 2.07882C1.19981 2.96193 0.644647 4.12162 0.51155 5.36451C-0.171493 11.7668 -0.171493 18.2236 0.51155 24.6259C0.642169 25.8696 1.19538 27.0308 2.07887 27.9159C2.96235 28.8009 4.12264 29.3561 5.3661 29.4889C11.7682 30.1753 18.2253 30.1753 24.6275 29.4889C25.8711 29.3579 27.0322 28.8043 27.9169 27.9205C28.8016 27.0367 29.3565 25.8762 29.4888 24.6327C30.1724 18.2282 30.1724 11.7691 29.4888 5.36451V5.36451ZM23.9388 19.5122C23.5638 20.6645 22.3229 21.3651 21.1809 21.5253C17.0731 21.9617 12.9307 21.9617 8.82291 21.5253C7.68087 21.3651 6.43655 20.673 6.06496 19.5122C5.48031 16.5333 5.48031 13.4691 6.06496 10.4901C6.43996 9.3361 7.68087 8.63724 8.82291 8.47701C12.9307 8.04065 17.0731 8.04065 21.1809 8.47701C22.3229 8.63724 23.5672 9.32929 23.9388 10.4901C24.5227 13.4686 24.5221 16.5322 23.9371 19.5105L23.9388 19.5122Z" fill="white"/>
</g>
<defs>
<clipPath id="clip0_110_38">
<rect width="30" height="30" fill="white"/>
</clipPath>
</defs>
</svg>
